@startuml
title Example for SealedClasses
'This file is generated by the GenerateExamplesForDoc test.

    'ui.UIState
    class "UIState" as ui_UIState <<Sealed>>{
        
    }


    'ui.UIState.Loading
    class "UIState.Loading" as ui_UIState_Loading << (O, #FF7700) object>>{
        
    }


    'ui.UIState.Success
    class "UIState.Success" as ui_UIState_Success <<Data>>{
        + data : String
		+ copy(String) : Success
		+ component1() : String
    }


    'ui.UIState.Error
    class "UIState.Error" as ui_UIState_Error <<Data>>{
        + exception : Exception
		+ copy(Exception) : Error
		+ component1() : Exception
    }


ui_UIState <|-- ui_UIState_Error
ui_UIState <|-- ui_UIState_Success
ui_UIState <|-- ui_UIState_Loading

note as note_of_code
Kotlin Code:

    package ui
    sealed class UIState {
        data object Loading : UIState()
        data class Success(val data: String) : UIState()
        data class Error(val exception: Exception) : UIState()
    }
    
end note

@enduml
